<svg width="29" height="29" viewBox="0 0 29 29" fill="none" xmlns="http://www.w3.org/2000/svg">
<g clip-path="url(#clip0_54_12)">
<circle cx="14.5348" cy="14.5816" r="24.4186" fill="#F9F6F6"/>
<path d="M23.837 9.93034L14.5347 15.7443L5.23238 9.93034V7.60476L14.5347 13.4187L23.837 7.60476V9.93034ZM23.837 5.27917H5.23238C3.94169 5.27917 2.9068 6.31406 2.9068 7.60476V21.5582C2.9068 22.175 3.15182 22.7665 3.58795 23.2027C4.02408 23.6388 4.6156 23.8838 5.23238 23.8838H23.837C24.4538 23.8838 25.0453 23.6388 25.4815 23.2027C25.9176 22.7665 26.1626 22.175 26.1626 21.5582V7.60476C26.1626 6.31406 25.1161 5.27917 23.837 5.27917Z" fill="#141110"/>
</g>
<defs>
<clipPath id="clip0_54_12">
<rect width="27.907" height="27.907" fill="white" transform="translate(0.581223 0.627991)"/>
</clipPath>
</defs>
</svg>
