<svg width="29" height="29" viewBox="0 0 29 29" fill="none" xmlns="http://www.w3.org/2000/svg">
<g clip-path="url(#clip0_54_14)">
<circle cx="14.0925" cy="14.5816" r="24.4186" fill="#F9F6F6"/>
<path d="M14.0925 3.00006C7.69711 3.00006 2.46455 8.22099 2.46455 14.6512C2.46455 20.4652 6.72036 25.2907 12.2785 26.1628V18.0233H9.32502V14.6512H12.2785V12.0815C12.2785 9.16285 14.0111 7.5582 16.6738 7.5582C17.9413 7.5582 19.2669 7.77913 19.2669 7.77913V10.6512H17.8018C16.3599 10.6512 15.9064 11.5466 15.9064 12.4652V14.6512H19.139L18.6157 18.0233H15.9064V26.1628C18.6465 25.7301 21.1415 24.332 22.9412 22.2211C24.7409 20.1101 25.7266 17.4252 25.7204 14.6512C25.7204 8.22099 20.4878 3.00006 14.0925 3.00006Z" fill="#141110"/>
</g>
<defs>
<clipPath id="clip0_54_14">
<rect width="27.907" height="27.907" fill="white" transform="translate(0.138977 0.627991)"/>
</clipPath>
</defs>
</svg>
