<svg width="29" height="29" viewBox="0 0 29 29" fill="none" xmlns="http://www.w3.org/2000/svg">
<g clip-path="url(#clip0_54_4)">
<circle cx="14.4186" cy="14.4186" r="24.4186" fill="#F9F6F6"/>
<path d="M10.265 4.46503H18.6651C21.8651 4.46503 24.465 7.06503 24.465 10.265V18.665C24.465 20.2033 23.854 21.6785 22.7663 22.7662C21.6786 23.854 20.2033 24.465 18.6651 24.465H10.265C7.06505 24.465 4.46505 21.865 4.46505 18.665V10.265C4.46505 8.72677 5.07612 7.25152 6.16383 6.16381C7.25154 5.0761 8.72679 4.46503 10.265 4.46503V4.46503ZM10.065 6.46503C9.11027 6.46503 8.1946 6.84431 7.51947 7.51944C6.84433 8.19457 6.46505 9.11025 6.46505 10.065V18.865C6.46505 20.855 8.07505 22.465 10.065 22.465H18.865C19.8198 22.465 20.7355 22.0857 21.4106 21.4106C22.0858 20.7355 22.465 19.8198 22.465 18.865V10.065C22.465 8.07503 20.855 6.46503 18.865 6.46503H10.065ZM19.715 7.96503C20.0466 7.96503 20.3645 8.09672 20.5989 8.33114C20.8334 8.56556 20.965 8.88351 20.965 9.21503C20.965 9.54655 20.8334 9.86449 20.5989 10.0989C20.3645 10.3333 20.0466 10.465 19.715 10.465C19.3835 10.465 19.0656 10.3333 18.8312 10.0989C18.5967 9.86449 18.465 9.54655 18.465 9.21503C18.465 8.88351 18.5967 8.56556 18.8312 8.33114C19.0656 8.09672 19.3835 7.96503 19.715 7.96503ZM14.465 9.46503C15.7911 9.46503 17.0629 9.99181 18.0006 10.9295C18.9383 11.8672 19.465 13.1389 19.465 14.465C19.465 15.7911 18.9383 17.0629 18.0006 18.0006C17.0629 18.9382 15.7911 19.465 14.465 19.465C13.139 19.465 11.8672 18.9382 10.9295 18.0006C9.99183 17.0629 9.46505 15.7911 9.46505 14.465C9.46505 13.1389 9.99183 11.8672 10.9295 10.9295C11.8672 9.99181 13.139 9.46503 14.465 9.46503V9.46503ZM14.465 11.465C13.6694 11.465 12.9063 11.7811 12.3437 12.3437C11.7811 12.9063 11.465 13.6694 11.465 14.465C11.465 15.2607 11.7811 16.0237 12.3437 16.5863C12.9063 17.149 13.6694 17.465 14.465 17.465C15.2607 17.465 16.0238 17.149 16.5864 16.5863C17.149 16.0237 17.465 15.2607 17.465 14.465C17.465 13.6694 17.149 12.9063 16.5864 12.3437C16.0238 11.7811 15.2607 11.465 14.465 11.465Z" fill="#120F0E"/>
</g>
<defs>
<clipPath id="clip0_54_4">
<rect width="27.907" height="27.907" fill="white" transform="translate(0.46505 0.465027)"/>
</clipPath>
</defs>
</svg>
