<svg width="380" height="50" viewBox="0 0 380 50" fill="none" xmlns="http://www.w3.org/2000/svg">
<circle cx="24.4186" cy="24.4186" r="24.4186" fill="#F9F6F6"/>
<path d="M20.2651 14.4651H28.6651C31.8651 14.4651 34.4651 17.0651 34.4651 20.2651V28.6651C34.4651 30.2033 33.854 31.6786 32.7663 32.7663C31.6786 33.854 30.2033 34.4651 28.6651 34.4651H20.2651C17.0651 34.4651 14.4651 31.8651 14.4651 28.6651V20.2651C14.4651 18.7268 15.0762 17.2516 16.1639 16.1639C17.2516 15.0762 18.7268 14.4651 20.2651 14.4651V14.4651ZM20.0651 16.4651C19.1103 16.4651 18.1946 16.8444 17.5195 17.5195C16.8444 18.1946 16.4651 19.1103 16.4651 20.0651V28.8651C16.4651 30.8551 18.0751 32.4651 20.0651 32.4651H28.8651C29.8199 32.4651 30.7355 32.0858 31.4107 31.4107C32.0858 30.7355 32.4651 29.8199 32.4651 28.8651V20.0651C32.4651 18.0751 30.8551 16.4651 28.8651 16.4651H20.0651ZM29.7151 17.9651C30.0466 17.9651 30.3646 18.0968 30.599 18.3312C30.8334 18.5656 30.9651 18.8836 30.9651 19.2151C30.9651 19.5466 30.8334 19.8646 30.599 20.099C30.3646 20.3334 30.0466 20.4651 29.7151 20.4651C29.3836 20.4651 29.0656 20.3334 28.8312 20.099C28.5968 19.8646 28.4651 19.5466 28.4651 19.2151C28.4651 18.8836 28.5968 18.5656 28.8312 18.3312C29.0656 18.0968 29.3836 17.9651 29.7151 17.9651ZM24.4651 19.4651C25.7912 19.4651 27.0629 19.9919 28.0006 20.9296C28.9383 21.8672 29.4651 23.139 29.4651 24.4651C29.4651 25.7912 28.9383 27.0629 28.0006 28.0006C27.0629 28.9383 25.7912 29.4651 24.4651 29.4651C23.139 29.4651 21.8672 28.9383 20.9296 28.0006C19.9919 27.0629 19.4651 25.7912 19.4651 24.4651C19.4651 23.139 19.9919 21.8672 20.9296 20.9296C21.8672 19.9919 23.139 19.4651 24.4651 19.4651V19.4651ZM24.4651 21.4651C23.6694 21.4651 22.9064 21.7812 22.3438 22.3438C21.7812 22.9064 21.4651 23.6694 21.4651 24.4651C21.4651 25.2607 21.7812 26.0238 22.3438 26.5864C22.9064 27.149 23.6694 27.4651 24.4651 27.4651C25.2607 27.4651 26.0238 27.149 26.5864 26.5864C27.149 26.0238 27.4651 25.2607 27.4651 24.4651C27.4651 23.6694 27.149 22.9064 26.5864 22.3438C26.0238 21.7812 25.2607 21.4651 24.4651 21.4651Z" fill="#120F0E"/>
<circle cx="189.535" cy="25.5817" r="24.4186" fill="#F9F6F6"/>
<circle cx="106.976" cy="25.5817" r="24.4186" fill="#F9F6F6"/>
<circle cx="272.093" cy="25.5817" r="24.4186" fill="#F9F6F6"/>
<circle cx="354.651" cy="25.5817" r="24.4186" fill="#F9F6F6"/>
<path d="M119.139 18.6046C118.244 19.0116 117.279 19.2791 116.279 19.407C117.302 18.7907 118.093 17.8139 118.465 16.6395C117.5 17.2209 116.43 17.6279 115.302 17.8604C114.383 16.8604 113.093 16.2791 111.627 16.2791C108.895 16.2791 106.662 18.5116 106.662 21.2674C106.662 21.6628 106.709 22.0465 106.79 22.407C102.651 22.1977 98.9646 20.2093 96.5112 17.1977C96.0809 17.9302 95.8367 18.7907 95.8367 19.6977C95.8367 21.4302 96.7088 22.9651 98.0577 23.8372C97.2321 23.8372 96.4646 23.6046 95.7902 23.2558C95.7902 23.2558 95.7902 23.2558 95.7902 23.2907C95.7902 25.7093 97.5111 27.7325 99.7902 28.186C99.3716 28.3023 98.9298 28.3604 98.4763 28.3604C98.1623 28.3604 97.8484 28.3256 97.546 28.2674C98.1739 30.2325 99.9995 31.6976 102.197 31.7325C100.5 33.0814 98.3484 33.8721 95.9995 33.8721C95.6042 33.8721 95.2088 33.8488 94.8135 33.8023C97.0228 35.2209 99.6507 36.0465 102.465 36.0465C111.627 36.0465 116.662 28.4418 116.662 21.8488C116.662 21.6279 116.662 21.4186 116.651 21.1977C117.627 20.5 118.465 19.6163 119.139 18.6046Z" fill="#141110"/>
<path d="M198.837 20.9302L189.535 26.7442L180.232 20.9302V18.6046L189.535 24.4186L198.837 18.6046V20.9302ZM198.837 16.2791H180.232C178.942 16.2791 177.907 17.3139 177.907 18.6046V32.5581C177.907 33.1749 178.152 33.7664 178.588 34.2025C179.024 34.6387 179.616 34.8837 180.232 34.8837H198.837C199.454 34.8837 200.045 34.6387 200.481 34.2025C200.918 33.7664 201.163 33.1749 201.163 32.5581V18.6046C201.163 17.3139 200.116 16.2791 198.837 16.2791Z" fill="#141110"/>
<path d="M272.092 14C265.697 14 260.464 19.2209 260.464 25.6512C260.464 31.4651 264.72 36.2907 270.278 37.1628V29.0232H267.325V25.6512H270.278V23.0814C270.278 20.1628 272.011 18.5581 274.674 18.5581C275.941 18.5581 277.267 18.7791 277.267 18.7791V21.6512H275.802C274.36 21.6512 273.906 22.5465 273.906 23.4651V25.6512H277.139L276.616 29.0232H273.906V37.1628C276.646 36.73 279.141 35.332 280.941 33.221C282.741 31.11 283.726 28.4252 283.72 25.6512C283.72 19.2209 278.488 14 272.092 14Z" fill="#141110"/>
<path d="M352.325 29.0698L358.36 25.5814L352.325 22.0931V29.0698ZM365.767 19.9651C365.918 20.5117 366.023 21.2442 366.093 22.1745C366.174 23.1047 366.209 23.907 366.209 24.6047L366.279 25.5814C366.279 28.1279 366.093 30 365.767 31.1977C365.476 32.2442 364.802 32.9186 363.755 33.2093C363.209 33.3605 362.209 33.4651 360.674 33.5349C359.162 33.6163 357.779 33.6512 356.5 33.6512L354.651 33.721C349.779 33.721 346.744 33.5349 345.546 33.2093C344.5 32.9186 343.825 32.2442 343.535 31.1977C343.383 30.6512 343.279 29.9186 343.209 28.9884C343.128 28.0582 343.093 27.2558 343.093 26.5582L343.023 25.5814C343.023 23.0349 343.209 21.1628 343.535 19.9651C343.825 18.9186 344.5 18.2442 345.546 17.9535C346.093 17.8024 347.093 17.6977 348.628 17.6279C350.139 17.5465 351.523 17.5117 352.802 17.5117L354.651 17.4419C359.523 17.4419 362.558 17.6279 363.755 17.9535C364.802 18.2442 365.476 18.9186 365.767 19.9651Z" fill="#141110"/>
</svg>
