<svg width="28" height="29" viewBox="0 0 28 29" fill="none" xmlns="http://www.w3.org/2000/svg">
<g clip-path="url(#clip0_54_10)">
<circle cx="13.9764" cy="14.5816" r="24.4186" fill="#F9F6F6"/>
<path d="M26.1391 7.60475C25.2437 8.01173 24.2786 8.27917 23.2786 8.40708C24.3019 7.7908 25.0926 6.81406 25.4647 5.63964C24.4995 6.22103 23.4298 6.62801 22.3019 6.86057C21.3833 5.86057 20.0926 5.27917 18.6275 5.27917C15.8949 5.27917 13.6623 7.51173 13.6623 10.2675C13.6623 10.6629 13.7089 11.0466 13.7902 11.4071C9.65072 11.1978 5.96467 9.20941 3.51118 6.19778C3.08095 6.93034 2.83676 7.7908 2.83676 8.69778C2.83676 10.4303 3.70886 11.9652 5.05769 12.8373C4.23211 12.8373 3.46467 12.6048 2.79025 12.2559C2.79025 12.2559 2.79025 12.2559 2.79025 12.2908C2.79025 14.7094 4.51118 16.7327 6.79025 17.1861C6.37165 17.3024 5.92979 17.3606 5.4763 17.3606C5.16234 17.3606 4.84839 17.3257 4.54607 17.2675C5.17397 19.2327 6.99955 20.6978 9.19723 20.7327C7.49955 22.0815 5.34839 22.8722 2.99955 22.8722C2.60421 22.8722 2.20886 22.8489 1.81351 22.8024C4.02281 24.221 6.65072 25.0466 9.46467 25.0466C18.6275 25.0466 23.6623 17.442 23.6623 10.8489C23.6623 10.628 23.6623 10.4187 23.6507 10.1978C24.6275 9.5001 25.4647 8.61638 26.1391 7.60475Z" fill="#141110"/>
</g>
<defs>
<clipPath id="clip0_54_10">
<rect width="27.907" height="27.907" fill="white" transform="translate(0.0228119 0.627991)"/>
</clipPath>
</defs>
</svg>
