<svg width="29" height="29" viewBox="0 0 29 29" fill="none" xmlns="http://www.w3.org/2000/svg">
<g clip-path="url(#clip0_54_16)">
<circle cx="14.651" cy="14.5816" r="24.4186" fill="#F9F6F6"/>
<path d="M12.3253 18.0699L18.3602 14.5815L12.3253 11.0931V18.0699ZM25.7672 8.96521C25.9183 9.51172 26.023 10.2443 26.0927 11.1745C26.1741 12.1047 26.209 12.9071 26.209 13.6047L26.2788 14.5815C26.2788 17.128 26.0927 19.0001 25.7672 20.1978C25.4765 21.2443 24.8021 21.9187 23.7555 22.2094C23.209 22.3606 22.209 22.4652 20.6741 22.535C19.1625 22.6164 17.7788 22.6513 16.4997 22.6513L14.6509 22.721C9.77881 22.721 6.74392 22.535 5.54625 22.2094C4.49974 21.9187 3.82532 21.2443 3.53462 20.1978C3.38346 19.6513 3.27881 18.9187 3.20904 17.9885C3.12765 17.0582 3.09276 16.2559 3.09276 15.5582L3.02299 14.5815C3.02299 12.035 3.20904 10.1629 3.53462 8.96521C3.82532 7.9187 4.49974 7.24428 5.54625 6.95358C6.09276 6.80242 7.09276 6.69777 8.62764 6.628C10.1393 6.54661 11.523 6.51172 12.8021 6.51172L14.6509 6.44196C19.523 6.44196 22.5579 6.628 23.7555 6.95358C24.8021 7.24428 25.4765 7.9187 25.7672 8.96521Z" fill="#141110"/>
</g>
<defs>
<clipPath id="clip0_54_16">
<rect width="27.907" height="27.907" fill="white" transform="translate(0.697418 0.627991)"/>
</clipPath>
</defs>
</svg>
